<svg xmlns="http://www.w3.org/2000/svg" viewBox="0 0 1200 675" role="img" aria-label="Culture and literature editorial image">
  <rect width="1200" height="675" fill="#f4efe8"/>
  <path d="M190 156h350c64 0 116 52 116 116v280H306c-64 0-116-52-116-116z" fill="#fff"/>
  <path d="M656 272c0-64 52-116 116-116h238v396H656z" fill="#e6dccd"/>
  <path d="M270 246h274M270 310h304M270 374h220M270 438h274" stroke="#637285" stroke-width="18" stroke-linecap="round"/>
  <path d="M758 236h156M758 300h156M758 364h156" stroke="#796a58" stroke-width="18" stroke-linecap="round"/>
  <path d="M600 156v396" stroke="#17324a" stroke-width="22" stroke-linecap="round"/>
  <circle cx="930" cy="458" r="86" fill="#0d6b75"/>
  <path d="M884 458h92M930 412v92" stroke="#f0b35b" stroke-width="18" stroke-linecap="round"/>
</svg>
