<svg xmlns="http://www.w3.org/2000/svg" viewBox="0 0 1200 675" role="img" aria-label="History editorial image">
  <rect width="1200" height="675" fill="#f5efe4"/>
  <path d="M190 152h620c86 0 156 70 156 156v232H346c-86 0-156-70-156-156z" fill="#d9c8ad"/>
  <path d="M250 116h540c84 0 152 68 152 152v228H402c-84 0-152-68-152-152z" fill="#fff7e8"/>
  <path d="M334 210h420M334 274h484M334 338h352M334 402h444" stroke="#796a58" stroke-width="19" stroke-linecap="round"/>
  <path d="M792 116c82 24 132 86 150 154v226c-16-72-76-126-150-140z" fill="#eadbc3"/>
  <circle cx="874" cy="210" r="58" fill="#b04d2f"/>
  <path d="M830 542h246" stroke="#17324a" stroke-width="22" stroke-linecap="round"/>
  <path d="M872 500h160" stroke="#0d6b75" stroke-width="18" stroke-linecap="round"/>
</svg>
