<svg xmlns="http://www.w3.org/2000/svg" viewBox="0 0 1200 675" role="img" aria-label="Markets and finance editorial image">
  <rect width="1200" height="675" fill="#f6f3ea"/>
  <rect x="96" y="426" width="1008" height="82" rx="18" fill="#ded7c4"/>
  <rect x="182" y="220" width="118" height="206" rx="14" fill="#0d6b75"/>
  <rect x="340" y="164" width="118" height="262" rx="14" fill="#17324a"/>
  <rect x="498" y="286" width="118" height="140" rx="14" fill="#b04d2f"/>
  <rect x="656" y="118" width="118" height="308" rx="14" fill="#446e5a"/>
  <rect x="814" y="248" width="118" height="178" rx="14" fill="#f0b35b"/>
  <path d="M168 330c136 4 186-116 314-88 96 20 124 110 224 78 104-34 134-164 300-160" fill="none" stroke="#182033" stroke-width="28" stroke-linecap="round"/>
  <path d="M966 112l88 44-82 54" fill="none" stroke="#182033" stroke-width="28" stroke-linecap="round" stroke-linejoin="round"/>
  <circle cx="238" cy="548" r="20" fill="#b04d2f"/>
  <circle cx="318" cy="548" r="20" fill="#0d6b75"/>
  <circle cx="398" cy="548" r="20" fill="#17324a"/>
</svg>
