<svg xmlns="http://www.w3.org/2000/svg" viewBox="0 0 1200 675" role="img" aria-label="Finance briefing editorial image">
  <rect width="1200" height="675" fill="#f4f7fb"/>
  <rect x="92" y="92" width="1016" height="492" rx="34" fill="#ffffff"/>
  <rect x="92" y="92" width="1016" height="92" rx="34" fill="#e8eff8"/>
  <rect x="150" y="222" width="430" height="264" rx="24" fill="#f8fafc" stroke="#d9e2ef" stroke-width="12"/>
  <path d="M192 424c62-70 110-42 154-92 38-44 72-76 126-34 28 22 54 28 82 18" fill="none" stroke="#245b9f" stroke-width="24" stroke-linecap="round" stroke-linejoin="round"/>
  <path d="M496 286l62 26-56 42" fill="none" stroke="#245b9f" stroke-width="22" stroke-linecap="round" stroke-linejoin="round"/>
  <rect x="646" y="232" width="304" height="26" rx="13" fill="#173d72"/>
  <rect x="646" y="302" width="390" height="22" rx="11" fill="#9aa8bb"/>
  <rect x="646" y="356" width="332" height="22" rx="11" fill="#c0cad8"/>
  <rect x="646" y="410" width="238" height="22" rx="11" fill="#d5dce6"/>
  <circle cx="204" cy="138" r="16" fill="#245b9f"/>
  <circle cx="254" cy="138" r="16" fill="#78a2d3"/>
  <circle cx="304" cy="138" r="16" fill="#b7c3d3"/>
  <path d="M910 132h116" stroke="#ffffff" stroke-width="18" stroke-linecap="round"/>
</svg>
